<svg width="120" height="120" viewBox="0 0 74 75" xmlns="http://www.w3.org/2000/svg" fill-rule="evenodd" clip-rule="evenodd" stroke-linecap="round" stroke-linejoin="round" stroke-miterlimit="1.5"><path d="M2.235 69.435c8.11-15.437 14.012-32.683 24.58-46.645 2.541-3.358 5.888-10.198 9.629-12.295 2.235-1.253 6.521 2.37 8.005 3.779 4.723 4.488 12.17 8.062 15.944 13.303 1.261 1.752 3.177 4.09 2.5 6.446-1.39 4.848-11.763 7.548-15.606 9.562-3.803 1.994-7.435 4.292-11.124 6.482-2.205 1.308-4.579 2.877-6.598 4.454-1.883 1.47-3.727 2.993-5.616 4.486-5.352 4.228-9.583 8.948-15.651 12.263-1.454.795-5.215 2.81-6.627.859-.585-.809.535-1.402.298-2.166" fill="#f79a0b" stroke="#f79a0b" stroke-width="2.9997352"/><path d="M49.615 16.977c0-4.567 2.096-8.914 4.89-12.452.302-.383 2.377-3.534 3.005-2.954.61.563-.648 2.632-.847 3.078-1.488 3.35-3.104 6.731-4.455 10.097-.556 1.384-1.29 2.7-1.913 3.929-.037.072-.193.215-.112.215.91 0 3.524-2.781 4.196-3.313 3.31-2.616 11.9-12.018 17.298-9.319 1.528.764-1.879 4.85-2.322 5.291-3.844 3.833-7.562 4.53-12.557 6.187-.696.232-3.264 2.318-3.976 1.64-.143-.135 2.206-.47 3.667-.654 2.38-.3 8.979-1.269 11.245-.136.57.285 1.447 2.27.894 2.793C65 24.81 54.262 19.832 50.89 19.832" fill="none" stroke="#00b53e" stroke-width="2.9997352"/></svg>