<svg width="80" height="80" viewBox="0 0 58 49" xmlns="http://www.w3.org/2000/svg" fill-rule="evenodd" clip-rule="evenodd" stroke-linecap="round" stroke-linejoin="round" stroke-miterlimit="1.5"><path d="M1.506 17.784c0 6.995-.6 31.084 10.179 29.615 5.614-.765 7.935-12.253 9.362-16.534.665-1.995-1.353-7.589-1.489-7.261-2.811 6.774 5.557 21.2 12.737 15.815 7.993-5.995 1.89-20.32-7.92-18.671-5.161.867-6.487 10.236 1.175 11.052 10.539 1.122 15.687-6.319 16.396-16.3.187-2.633.91-8.024-.63-10.32-.069-.102-2.58-4.538-3.198-3.531-5.902 9.61 6.681 30.177 17.612 30.177" fill="none" stroke="#ac2828" stroke-width="3"/></svg>