<?xml version="1.0" encoding="UTF-8" standalone="no"?>
<svg width="100%" height="100%" viewBox="0 0 58 49" version="1.1" xmlns="http://www.w3.org/2000/svg" xmlns:xlink="http://www.w3.org/1999/xlink" xml:space="preserve" xmlns:serif="http://www.serif.com/" style="fill-rule:evenodd;clip-rule:evenodd;stroke-linecap:round;stroke-linejoin:round;stroke-miterlimit:1.5;">
    <g transform="matrix(1,0,0,1,-341.447,-294.884)">
        <path id="lol" d="M342.953,312.668C342.953,319.663 342.353,343.752 353.132,342.283C358.746,341.518 361.067,330.03 362.494,325.749C363.159,323.754 361.141,318.16 361.005,318.488C358.194,325.262 366.562,339.688 373.742,334.303C381.735,328.308 375.632,313.983 365.822,315.632C360.661,316.499 359.335,325.868 366.997,326.684C377.536,327.806 382.684,320.365 383.393,310.384C383.58,307.751 384.303,302.36 382.763,300.064C382.694,299.962 380.183,295.526 379.565,296.533C373.663,306.143 386.246,326.71 397.177,326.71" style="fill:none;stroke:rgb(172,40,40);stroke-width:3px;"/>
    </g>
</svg>
