<svg xmlns="http://www.w3.org/2000/svg" class="bf bj bk bl" width="150" height="150" viewBox="0 0 4096 4096"><path fill="#36a28b" fill-rule="evenodd" d="M-222.659-11173.557h4713.773v4713.773H-222.659z"/><path d="M1450.37-9346.5v724.907c0 64.157 1.493 102.978 4.48 140.282h-2.987c-15.689-42.726-34.18-80.168-61.768-128.911L961.372-9346.5h-195.94v1059.635h152.663v-724.952c0-64.18-1.493-102.978-4.456-140.305h3.147c15.666 42.725 34.157 80.145 61.768 128.865l428.585 736.392h193.872V-9346.5zm1741.517 354.644c-126.34 0-216.544 58.437-262.141 144.945 0-204.439 71.209-382.392 240.502-382.392 107.595 0 150.297 61.905 173.107 163.413l156.705-31.356c-36.753-175.242-148.23-260.417-328.71-260.417-226.765 0-396.426 174.118-396.426 564.365 0 346.42 141.476 517.643 385.24 517.643 201.429 0 352.3-137.548 352.3-364.2 0-177.08-94.41-352-320.577-352zm-31.332 588.162c-125.006 0-211.56-114.853-226.536-267.354 37.97-130.083 122.157-194.883 221.712-194.883 127.969 0 200.166 94.501 200.166 228.856 0 144.21-82.327 233.382-195.342 233.381zm-1078.493-20.443c79.776-55.13 194.147-146.714 244.89-197.547 57.678-57.703 221.873-206.024 221.873-417.468 0-218.566-142.418-318.603-335.027-318.603-233.473.09-348.763 143.796-348.763 308.197a337.025 337.025 0 0010.452 83.682l159.967 15.39a425.439 425.439 0 01-10.451-91.032c0-123.123 81.476-182.043 183.489-182.043 99.462 0 173.083 55.727 173.083 189.738 0 136.192-66.614 229.017-168.053 330.57-106.055 106.124-275.578 232.738-357.239 290.969v125.419h704.44v-137.272zm-471.564 411.863v137.295H755.99v-137.295zm0-1746.088v137.295H755.99v-137.295z" fill="#36a28b"/><path d="M1450.37-9346.5v724.907c0 64.157 1.493 102.978 4.48 140.282h-2.987c-15.689-42.726-34.18-80.168-61.768-128.911L961.372-9346.5h-195.94v1059.635h152.663v-724.952c0-64.18-1.493-102.978-4.456-140.305h3.147c15.666 42.725 34.157 80.145 61.768 128.865l428.585 736.392h193.872V-9346.5z" fill="#36a28b"/><path d="M1364.142 1518.171v724.907c0 64.157 1.493 102.977 4.479 140.281h-2.986c-15.69-42.725-34.18-80.167-61.768-128.91L875.144 1518.17h-195.94v1059.635h152.663v-724.953c0-64.18-1.493-102.977-4.456-140.304h3.147c15.666 42.725 34.157 80.144 61.768 128.865l428.585 736.392h193.872V1518.17zm1741.517 354.644c-126.339 0-216.544 58.437-262.14 144.944 0-204.438 71.208-382.392 240.501-382.392 107.595 0 150.297 61.906 173.107 163.413l156.705-31.355c-36.753-175.242-148.229-260.417-328.709-260.417-226.766 0-396.427 174.117-396.427 564.364 0 346.42 141.476 517.643 385.24 517.643 201.43 0 352.3-137.548 352.3-364.199 0-177.08-94.409-352.001-320.577-352.001zm-31.332 588.162c-125.006 0-211.559-114.853-226.536-267.355 37.97-130.082 122.157-194.882 221.712-194.882 127.97 0 200.166 94.5 200.166 228.856 0 144.21-82.327 233.381-195.342 233.381zm-1078.493-20.444c79.777-55.13 194.147-146.713 244.889-197.547 57.68-57.702 221.874-206.023 221.874-417.468 0-218.565-142.418-318.602-335.027-318.602-233.473.092-348.763 143.796-348.763 308.197a337.025 337.025 0 0010.452 83.681l159.967 15.39a425.439 425.439 0 01-10.451-91.032c0-123.122 81.476-182.042 183.489-182.042 99.463 0 173.083 55.727 173.083 189.737 0 136.193-66.614 229.017-168.052 330.57-106.056 106.125-275.58 232.739-357.24 290.97v125.419h704.44v-137.273zm-471.564 411.863v137.296H669.764v-137.296zm0-1746.088v137.296H669.764v-137.296z" style="fill:#ffffff;stroke-width:2.29706073"/><path d="M1364.142 1518.171v724.907c0 64.157 1.493 102.977 4.479 140.281h-2.986c-15.69-42.725-34.18-80.167-61.768-128.91L875.144 1518.17h-195.94v1059.635h152.663v-724.953c0-64.18-1.493-102.977-4.456-140.304h3.147c15.666 42.725 34.157 80.144 61.768 128.865l428.585 736.392h193.872V1518.17z" style="fill:#ffffff;stroke-width:2.29706073"/><path fill="#36a28b" fill-rule="evenodd" d="M-179.968-5770.871h4713.773v4713.773H-179.968z"/><path d="M2535.64-4125.49v973.476c0 86.156 2.005 138.288 6.016 188.384h-4.01c-21.07-57.376-45.901-107.657-82.949-173.115l-575.732-988.745H1615.84v1422.981h205.01v-973.537c0-86.187-2.005-138.288-5.984-188.415h4.226c21.038 57.376 45.87 107.626 82.948 173.053l575.547 988.9h260.35V-4125.49zm215.036 1791.728v184.374H1603.16v-184.374zm0-2344.818v184.374H1603.16v-184.374z" fill="#36a28b"/><path d="M2535.64-4125.49v973.476c0 86.156 2.005 138.288 6.016 188.384h-4.01c-21.07-57.376-45.901-107.657-82.949-173.115l-575.732-988.745H1615.84v1422.981h205.01v-973.537c0-86.187-2.005-138.288-5.984-188.415h4.226c21.038 57.376 45.87 107.626 82.948 173.053l575.547 988.9h260.35V-4125.49z" fill="#36a28b"/></svg>