<svg xmlns="http://www.w3.org/2000/svg" width="100" height="100" viewBox="0 0 550.801 550.801"><path d="M475.095 131.992c-.032-2.526-.844-5.021-2.579-6.993L366.324 3.694c-.031-.034-.062-.045-.084-.076-.633-.707-1.371-1.29-2.151-1.804A11.07 11.07 0 00361.252.5c-.201-.058-.38-.14-.58-.192A10.558 10.558 0 00358.193 0H97.2C85.292 0 75.6 9.693 75.6 21.601v507.6c0 11.913 9.692 21.601 21.6 21.601h356.4c11.908 0 21.601-9.688 21.601-21.601V133.202c-.001-.406-.064-.804-.106-1.21zM210.558 418.605h-35.764v106.128H145.06V418.605h-35.184v-24.874h100.683v24.874zm88.256 106.128l-11.855-23.714c-4.856-9.134-7.973-15.937-11.662-23.52h-.388c-2.724 7.583-6.022 14.386-10.104 23.52l-10.887 23.714h-33.827L258 458.452l-36.547-64.727h34.016l11.476 23.91c3.881 7.963 6.803 14.381 9.911 21.769h.391c3.101-8.358 5.632-14.19 8.933-21.769l11.085-23.91h33.824l-36.936 63.946 38.876 67.062h-34.215zm142.109-106.128h-35.765v106.128h-29.742V418.605h-35.189v-24.874h100.686v24.874h.01zM97.2 366.752V21.601h250.192v110.515c0 5.961 4.842 10.8 10.801 10.8H453.6v223.836H97.2z"/><path d="M174.351 148.269h119.812c3.966 0 7.203-3.225 7.203-7.198s-3.237-7.193-7.203-7.193H174.351c-3.977 0-7.193 3.22-7.193 7.193s3.216 7.198 7.193 7.198zM370.797 191.432H174.161a7.19 7.19 0 00-7.193 7.192 7.195 7.195 0 007.193 7.198h196.636c3.976 0 7.203-3.225 7.203-7.198 0-3.976-3.228-7.192-7.203-7.192zM370.797 248.58H174.161a7.191 7.191 0 00-7.193 7.198 7.195 7.195 0 007.193 7.198h196.636a7.198 7.198 0 100-14.396zM370.797 307.099H174.161a7.195 7.195 0 00-7.193 7.198 7.19 7.19 0 007.193 7.193h196.636c3.976 0 7.203-3.217 7.203-7.193a7.202 7.202 0 00-7.203-7.198z"/></svg>