<svg xmlns="http://www.w3.org/2000/svg" xmlns:xlink="http://www.w3.org/1999/xlink" viewBox="0 0 500 500">
  <symbol id="b" viewBox="-44.47 -34.44 88.94 68.89">
    <path fill="#231F20" stroke="#231F20" stroke-width="6" d="M18.2 13.45c0 9.94-8.06 18-18 18s-18-8.06-18-18 8.06-18 18-18 18 8.05 18 18z"/>
    <path fill="#7A7A7A" d="M-11.8 4.6c0 9.93 8.05 18 18 18 4.25 0 8.15-1.5 11.23-3.96-2.23 7.4-9.1 12.8-17.23 12.8-9.94 0-18-8.06-18-18 0-5.68 2.64-10.74 6.76-14.04-.5 1.65-.77 3.4-.77 5.2z"/>
    <path fill="#7A7A7A" d="M-24.3-17.06c-2.52-2.12-6.32-1.8-8.45.74l-1.75 2.1c-2.12 2.52-1.78 6.32.74 8.44L-17.34 8c2.54 2.1 6.34 1.77 8.44-.75l1.76-2.1C-5 2.63-5.34-1.17-7.87-3.3L-24.3-17.05z"/>
    <path fill="none" stroke="#231F20" stroke-width="6" d="M-24.3-17.06c-2.52-2.12-6.32-1.8-8.45.74l-1.75 2.1c-2.12 2.52-1.78 6.32.74 8.44L-17.34 8c2.54 2.1 6.34 1.77 8.44-.75l1.76-2.1C-5 2.63-5.34-1.17-7.87-3.3L-24.3-17.05z"/>
    <path fill="#7A7A7A" d="M-27.1-27.17c-.96-3.16-4.32-4.97-7.48-4.02l-2.6.8c-3.18 1-5 4.3-4.04 7.5l3.48 11.6c.95 3.2 4.3 5 7.47 4l2.6-.8c3.17-.9 4.98-4.3 4.04-7.4l-3.48-11.6z"/>
    <path fill="none" stroke="#231F20" stroke-width="6" d="M-27.1-27.17c-.96-3.16-4.32-4.97-7.48-4.02l-2.6.8c-3.18 1-5 4.3-4.04 7.5l3.48 11.6c.95 3.2 4.3 5 7.47 4l2.6-.8c3.17-.9 4.98-4.3 4.04-7.4l-3.48-11.6z"/>
    <path fill="#7A7A7A" d="M24.3-17.06c2.52-2.12 6.32-1.8 8.44.74l1.76 2.1c2.12 2.52 1.78 6.32-.74 8.44L17.34 8C14.8 10.12 11 9.78 8.88 7.26l-1.75-2.1c-2.13-2.5-1.78-6.3.75-8.43l16.42-13.8z"/>
    <path fill="none" stroke="#231F20" stroke-width="6" d="M24.3-17.06c2.52-2.12 6.32-1.8 8.44.74l1.76 2.1c2.12 2.52 1.78 6.32-.74 8.44L17.34 8C14.8 10.12 11 9.78 8.88 7.26l-1.75-2.1c-2.13-2.5-1.78-6.3.75-8.43l16.42-13.8z"/>
    <path fill="#7A7A7A" d="M27.1-27.17c.96-3.16 4.32-4.97 7.48-4.02l2.62.8c3.16 1 4.97 4.3 4.02 7.5l-3.48 11.6c-.95 3.2-4.3 5-7.47 4l-2.6-.8c-3.17-.9-4.98-4.3-4.03-7.4l3.47-11.6z"/>
    <path fill="none" stroke="#231F20" stroke-width="6" d="M27.1-27.17c.96-3.16 4.32-4.97 7.48-4.02l2.62.8c3.16 1 4.97 4.3 4.02 7.5l-3.48 11.6c-.95 3.2-4.3 5-7.47 4l-2.6-.8c-3.17-.9-4.98-4.3-4.03-7.4l3.47-11.6z"/>
    <path fill="#D6D6D6" d="M-4.48 25.45c0-1.6-1.3-2.9-2.88-2.9-1.6 0-2.9 1.3-2.9 2.9s1.3 2.88 2.9 2.88c1.6 0 2.88-1.3 2.88-2.88z"/>
    <path fill="#7A7A7A" stroke="#231F20" stroke-width="6" d="M-11.7-.74l-10.2-9.08m-5.9-5.48l-2.75-9.8" stroke-linecap="round"/>
  </symbol>
  <circle cx="245.09" cy="215.5" r="215.29" fill="#e5dadc"/>
  <path fill="#231F20" stroke="#FFF" stroke-width="15.87" d="M246.65 367.4s41.7 2.34 63.05-14.96c21.36-17.3 81.35-88.14 81.35-162.28 0-74.15-55.93-117-144.4-117-88.48 0-144.4 42.85-144.4 117 0 74.14 60 144.98 81.34 162.28 21.3 17.3 63 14.95 63 14.95z"/>
  <path fill="none" stroke="#FFF" stroke-width="15.87" d="M105.83 157.34c-5.4-15.18-7.06-41.2-7.06-41.2 24.95 63.92 146.68 29.4 147.87 119.48" stroke-linecap="round" stroke-linejoin="round"/>
  <path fill="none" stroke="#FFF" stroke-width="15.87" d="M246.5 235.62c1.2-90.08 122.92-55.56 147.86-119.47 0 0-1.65 26-7.05 41.2" stroke-linecap="round" stroke-linejoin="round"/>
  <path fill="#231F20" stroke="#FFF" stroke-width="15.87" d="M106.68 238.08c-34.03-2.54 4.2 101.54 23.6 103.67 4.9.54-20-103.4-23.6-103.67zm277.1 0c34.02-2.54-4.2 101.54-23.6 103.67-4.9.54 20-103.4 23.6-103.67z"/>
  <circle cx="185.91" cy="354.05" r="2.39" fill="#e5dadc"/>
  <circle cx="296.76" cy="354.05" r="2.39" fill="#e5dadc"/>
  <path fill="#231F20" stroke="#FFF" stroke-width="15.87" d="M223.62 385.62c-.43-1.44-1.36-2.6-2.54-3.36-.32-1.16-.97-2.23-1.95-3.06l-11.88-9.96c-.28-.24-.58-.44-.9-.62.5-1.45.75-3 .75-4.62 0-1.5-.23-2.94-.64-4.3l-.23-.7-.2-.56-.3-.66-.26-.54-.33-.62-.33-.54-.3-.56-.4-.62-.6-.7c-.1-.22-.3-.43-.5-.63l-.4-.4-.5-.5-.4-.37-.6-.46-.4-.3c-.3-.18-.5-.33-.8-.48l-.4-.2c-.4-.2-.8-.4-1.2-.57-.1-.1-.2-.1-.3-.2l-.9-.4-.5-.2c-.3-.1-.6-.2-.8-.2l-.5-.1c-.3-.1-.6-.1-.9-.2-.1 0-.3-.1-.4-.1-.5-.1-.9-.1-1.4-.1-8.2 0-14.9 6.6-14.9 14.9 0 .5 0 1.1.1 1.6 0 .1 0 .3.1.5l.2 1.1.18.5.2.6c-.4.2-.8.4-1.2.7L165 379c-.96.8-1.62 1.9-1.93 3.02-1.17.75-2.1 1.9-2.53 3.4l-2.2 7.4c-1 3.2.86 6.63 4.08 7.6 3.2.96 6.65-.9 7.6-4.1l2.25-7.44.04-.1.6-.47 11.9-9.9c.4-.3.8-.7 1-1.2 2 1 4.2 1.5 6.5 1.5 2.2 0 4.3-.5 6.2-1.4.3.4.6.8 1 1.1l11.9 10c.2.2.4.3.6.4l.1.2 2.3 7.5c1 3.2 4.4 5.1 7.6 4.1 3.2-.9 5.1-4.4 4.1-7.6l-2.2-7.4zm113.08 7.45l-2.24-7.45c-.43-1.44-1.35-2.6-2.53-3.36-.32-1.16-.97-2.23-1.96-3.06l-11.87-9.96c-.28-.24-.6-.44-.9-.62.48-1.45.75-3 .75-4.62 0-1.76-.33-3.45-.9-5.02-.05-.18-.1-.36-.18-.53l-.3-.68-.25-.53-.34-.63-.32-.5-.37-.6-.5-.5c-.2-.2-.4-.5-.7-.7l-.6-.6-.5-.4-.6-.5-.5-.3-.6-.4-.5-.3-.8-.4-.4-.2c-.4-.2-.8-.4-1.2-.5l-.4-.1-.9-.3-.5-.1-.9-.2-.5-.1c-.3 0-.6-.1-.9-.1h-.48c-.5 0-.9-.1-1.4-.1-8.3 0-14.9 6.7-14.9 14.9 0 .6.05 1.1.1 1.7 0 .2.06.4.1.5.03.4.1.8.17 1.1l.2.6c.1.2.1.5.2.7-.4.2-.8.5-1.17.8l-11.9 10c-1 .8-1.7 1.9-2 3.1-1.2.75-2.1 1.9-2.52 3.35l-2.2 7.46c-1 3.2.9 6.6 4.1 7.6 3.2.97 6.6-.9 7.6-4.1l2.2-7.43.05-.13.65-.47 11.9-9.96c.4-.3.8-.7 1.1-1.2 2 1 4.2 1.5 6.5 1.5 2.26 0 4.4-.5 6.3-1.33.3.4.6.77 1 1.1l11.9 9.96c.2.17.4.3.6.45v.1l2.3 7.46c1 3.2 4.4 5 7.6 4.1 3.2-1 5.1-4.4 4.1-7.6z" stroke-linecap="round"/>
  <g stroke="#FFF" stroke-width="6.35">
    <path fill="#BE1E2D" d="M494.94 438.24c0 32.35-26.47 58.82-58.82 58.82H63.88c-32.35 0-58.82-26.47-58.82-58.82s26.47-58.83 58.82-58.83h372.24c32.35.1 58.82 26.5 58.82 58.9z"/>
    <path fill="#e5dadc" d="M494.94 438.24c0 32.35-26.47 58.82-58.82 58.82H63.88c-32.35 0-58.82-26.47-58.82-58.82s26.47-58.83 58.82-58.83h372.24c32.35.1 58.82 26.5 58.82 58.9z"/>
  </g>
  <path fill="#FFF" stroke="#FFF" stroke-width="7.94" d="M223.62 385.62c-.43-1.44-1.36-2.6-2.54-3.36-.32-1.16-.97-2.23-1.95-3.06l-11.88-9.96c-.28-.24-.58-.44-.9-.62.5-1.45.75-3 .75-4.62 0-1.5-.23-2.94-.64-4.3l-.23-.7-.2-.56-.3-.66-.26-.54-.33-.62-.33-.54-.3-.56-.4-.62-.6-.7c-.1-.22-.3-.43-.5-.63l-.4-.4-.5-.5-.4-.37-.6-.46-.4-.3c-.3-.18-.5-.33-.8-.48l-.4-.2c-.4-.2-.8-.4-1.2-.57-.1-.1-.2-.1-.3-.2l-.9-.4-.5-.2c-.3-.1-.6-.2-.8-.2l-.5-.1c-.3-.1-.6-.1-.9-.2-.1 0-.3-.1-.4-.1-.5-.1-.9-.1-1.4-.1-8.2 0-14.9 6.6-14.9 14.9 0 .5 0 1.1.1 1.6 0 .1 0 .3.1.5l.2 1.1.18.5.2.6c-.4.2-.8.4-1.2.7L165 379c-.96.8-1.62 1.9-1.93 3.02-1.17.75-2.1 1.9-2.53 3.4l-2.2 7.4c-1 3.2.86 6.63 4.08 7.6 3.2.96 6.65-.9 7.6-4.1l2.25-7.44.04-.1.6-.47 11.9-9.9c.4-.3.8-.7 1-1.2 2 1 4.2 1.5 6.5 1.5 2.2 0 4.3-.5 6.2-1.4.3.4.6.8 1 1.1l11.9 10c.2.2.4.3.6.4l.1.2 2.3 7.5c1 3.2 4.4 5.1 7.6 4.1 3.2-.9 5.1-4.4 4.1-7.6l-2.2-7.4zm113.08 7.45l-2.24-7.45c-.43-1.44-1.35-2.6-2.53-3.36-.32-1.16-.97-2.23-1.96-3.06l-11.87-9.96c-.28-.24-.6-.44-.9-.62.48-1.45.75-3 .75-4.62 0-1.76-.33-3.45-.9-5.02-.05-.18-.1-.36-.18-.53l-.3-.68-.25-.53-.34-.63-.32-.5-.37-.6-.5-.5c-.2-.2-.4-.5-.7-.7l-.6-.6-.5-.4-.6-.5-.5-.3-.6-.4-.5-.3-.8-.4-.4-.2c-.4-.2-.8-.4-1.2-.5l-.4-.1-.9-.3-.5-.1-.9-.2-.5-.1c-.3 0-.6-.1-.9-.1h-.48c-.5 0-.9-.1-1.4-.1-8.3 0-14.9 6.7-14.9 14.9 0 .6.05 1.1.1 1.7 0 .2.06.4.1.5.03.4.1.8.17 1.1l.2.6c.1.2.1.5.2.7-.4.2-.8.5-1.17.8l-11.9 10c-1 .8-1.7 1.9-2 3.1-1.2.75-2.1 1.9-2.52 3.35l-2.2 7.46c-1 3.2.9 6.6 4.1 7.6 3.2.97 6.6-.9 7.6-4.1l2.2-7.43.05-.13.65-.47 11.9-9.96c.4-.3.8-.7 1.1-1.2 2 1 4.2 1.5 6.5 1.5 2.26 0 4.4-.5 6.3-1.33.3.4.6.77 1 1.1l11.9 9.96c.2.17.4.3.6.45v.1l2.3 7.46c1 3.2 4.4 5 7.6 4.1 3.2-1 5.1-4.4 4.1-7.6z" stroke-linecap="round"/>
  <circle cx="40.96" cy="438.24" r="18.48" fill="#FFF"/>
  <circle cx="461.29" cy="438.24" r="18.48" fill="#FFF"/>
  <path fill="#231F20" d="M462.32 425.8c2.22 1.83 3.64 4.6 3.64 7.7 0 5.52-4.48 10-10 10-2.53 0-4.83-.95-6.6-2.5 1.34 5.36 6.16 9.34 11.93 9.34 6.8 0 12.3-5.5 12.3-12.3 0-6.44-5-11.72-11.3-12.25zm-421.36 4.1l6.6-6.1-.67 8.95 8.8 1.36-7.4 5.1 4.4 7.8-8.6-2.6-3.3 8.4-3.3-8.3L29 447l4.47-7.8-7.4-5.1 8.86-1.32-.65-8.95"/>
  <path fill="#7A7A7A" d="M393.77 126.93l-5.8 32-7.92-21.63 7.93-8.85m-285.42-5.5l11.9 15.56-8.24 19-5.5-19.8"/>
  <linearGradient id="a" x1="102.24" x2="391.06" y1="220.33" y2="220.33" gradientUnits="userSpaceOnUse">
    <stop offset="0" stop-color="#D6D6D6"/>
    <stop offset="1" stop-color="#7A7A7A"/>
  </linearGradient>
  <path fill="url(#a)" stroke="#231F20" stroke-width="6.35" d="M246.65 367.4s41.7 2.34 63.05-14.96c21.36-17.3 81.35-88.14 81.35-162.28 0-74.15-55.93-117-144.4-117-88.48 0-144.4 42.85-144.4 117 0 74.14 60 144.98 81.34 162.28 21.3 17.3 63 14.95 63 14.95z"/>
  <path fill="#231F20" stroke="#231F20" stroke-width="6.35" d="M106.68 238.08c-34.03-2.54 4.2 101.54 23.6 103.67 4.9.54-20-103.4-23.6-103.67zm277.1 0c34.02-2.54-4.2 101.54-23.6 103.67-4.9.54 20-103.4 23.6-103.67z"/>
  <path fill="#231F20" d="M257.27 91.12c-8.47.12-16.5.53-24.04 1.2.52.85.86 1.77.96 2.74.6 6.32-8.6 12.36-20.5 13.5-11.5 1.08-21.3-2.8-22.5-8.72-30.5 9.13-44.6 24.3-38.8 40.1 6.6 17.38 87.9 7.26 95 88.83 16.5-83.83 102-64.23 102.3-95.9.3-28.27-44.9-42.4-92.7-41.75z"/>
  <path fill="#231F20" d="M246.66 235.62h-.02c-.83-62.73-93.47-86.4-111.64-66.96-12.88 13.8-13.62 27.26-12.28 47.34 4.5 67.42 56.07 121.28 74.54 137.07 18.47 15.78 54.53 13.64 54.53 13.64s36 2.2 54.5-13.6 70.4-80.4 70.4-148.1c0-21.8-5.1-40.6-14.5-56.2-40.9 20.4-114.8 19.9-115.6 86.9z"/>
  <ellipse cx="141.13" cy="122.74" fill="#231F20" transform="rotate(-145.105 141.128 122.74)" rx="4.74" ry="8.49"/>
  <ellipse cx="152.06" cy="112.95" fill="#231F20" transform="rotate(-120.837 152.063 112.95)" rx="2.15" ry="3.86"/>
  <path fill="#231F20" d="M176.06 167.2c-15.53 5.05-26.76 19.63-26.76 36.85 0 21.4 17.34 38.73 38.73 38.73 21.4 0 38.74-17.34 38.74-38.73 0-7.96-2.4-15.35-6.52-21.5-10.43-6.5-26.7-10.84-44.2-15.34z"/>
  <path fill="none" stroke="#7A7A7A" stroke-width="2.38" d="M152.97 206.54l44.06-36.6m-17.26 69.26l46.76-39.72"/>
  <path fill="none" stroke="#7A7A7A" stroke-width="7.94" d="M166.83 233.17l55.55-46.14"/>
  <path fill="#7A7A7A" stroke="#231F20" stroke-width="1.59" d="M159.52 205.97c0-16.76 10.64-31.02 25.53-36.42-2.94-.78-5.94-1.56-9-2.34-15.52 5.1-26.76 19.7-26.76 36.9 0 20.8 16.3 37.7 36.7 38.7-15.4-5.1-26.6-19.6-26.6-36.7z"/>
  <path fill="none" stroke="#7A7A7A" stroke-width="2.38" d="M176.06 167.2c-15.53 5.05-26.76 19.63-26.76 36.85 0 21.4 17.34 38.73 38.73 38.73 21.4 0 38.74-17.34 38.74-38.73 0-7.96-2.4-15.35-6.52-21.5-10.43-6.5-26.7-10.84-44.2-15.34z"/>
  <path fill="#231F20" d="M319.42 167.2c15.54 5.05 26.77 19.63 26.77 36.85 0 21.4-17.4 38.73-38.8 38.73s-38.8-17.34-38.8-38.73c0-7.96 2.4-15.35 6.5-21.5 10.4-6.5 26.7-10.84 44.2-15.34z"/>
  <path fill="none" stroke="#7A7A7A" stroke-width="2.38" d="M271.65 211.08l47.58-39.52m-23.83 68.1l44.07-36.6"/>
  <path fill="none" stroke="#7A7A7A" stroke-width="7.94" d="M274.54 223.5l53.58-44.5"/>
  <path fill="#7A7A7A" stroke="#231F20" stroke-width="1.59" d="M335.96 205.97c0-16.76-10.64-31.02-25.53-36.42 2.94-.78 5.95-1.56 9-2.34 15.53 5.1 26.76 19.7 26.76 36.9 0 20.8-16.3 37.7-36.8 38.7 15.4-5.1 26.5-19.6 26.5-36.7z"/>
  <path fill="none" stroke="#7A7A7A" stroke-width="2.38" d="M319.42 167.2c15.54 5.05 26.77 19.63 26.77 36.85 0 21.4-17.4 38.73-38.8 38.73s-38.8-17.34-38.8-38.73c0-7.96 2.4-15.35 6.5-21.5 10.4-6.5 26.7-10.84 44.2-15.34z"/>
  <path fill="#7A7A7A" d="M140.6 185.75c.54.1 1.06.04 1.55-.1-1.6-.5-2.65-2.1-2.36-3.8.2-1.3 1.1-2.3 2.3-2.66-.2-.1-.3-.1-.4-.2-1.9-.3-3.6.9-3.9 2.7-.3 1.8.9 3.6 2.7 3.9zm-3.2 13.35c.2-.02.4-.07.58-.12-1.25-.4-2.22-1.48-2.37-2.86-.1-1.65.9-3.15 2.4-3.6-.4-.15-.9-.2-1.3-.14-1.8.2-3.2 1.88-3 3.74.2 1.86 1.9 3.2 3.8 2.98zm-1.85 12.37c-.72-1.73.1-3.7 1.82-4.43.1-.05.22-.07.33-.1-.73-.23-1.53-.22-2.3.1-1.7.72-2.53 2.7-1.8 4.43.67 1.6 2.45 2.4 4.1 1.92-.94-.3-1.74-1-2.15-2zm4.08 14.28c-1.17-1.45-.93-3.58.53-4.75.35-.28.73-.47 1.14-.6-1.03-.3-2.2-.13-3.1.6-1.46 1.17-1.7 3.3-.53 4.75.9 1.12 2.33 1.5 3.62 1.13-.7-.2-1.3-.57-1.7-1.13zm7.62 12.35c-1.52-1.1-1.86-3.2-.77-4.72.46-.63 1.08-1.04 1.77-1.25-1.35-.4-2.86.05-3.72 1.25-1.1 1.5-.76 3.63.76 4.72.8.65 1.9.78 2.9.48-.4-.1-.7-.25-1-.48zm-.05-64.08c.8.37 1.65.4 2.42.16-.16-.04-.3-.1-.47-.16-1.7-.8-2.4-2.8-1.62-4.5.43-.9 1.2-1.52 2.08-1.8-1.5-.47-3.3.26-4 1.8-.8 1.7 0 3.7 1.7 4.5zm12.63-8.84c-.44-.13-.85-.35-1.22-.67-1.4-1.2-1.5-3.3-.3-4.7.5-.5 1-.8 1.6-1-1.2-.3-2.6 0-3.5 1.1-1.2 1.4-1 3.6.4 4.8.9.8 2.1 1 3.2.7zm78.45 42.06c.03 0 .05-.02.07-.03-1.07-.3-1.96-1.1-2.28-2.3-.5-1.7.52-3.6 2.28-4.1-.6-.2-1.25-.2-1.9 0-1.8.5-2.85 2.4-2.34 4.2.6 1.8 2.4 2.9 4.2 2.4zm-9.78 22.4c.34-1.14 1.22-1.97 2.28-2.3h-.04c-1.8-.53-3.67.5-4.2 2.3-.5 1.8.53 3.68 2.32 4.2.65.2 1.3.16 1.92-.02-1.77-.53-2.8-2.4-2.27-4.17zm-18.94 21.53c-1.28-1.37-1.2-3.5.16-4.8.4-.35.85-.6 1.33-.74-1.12-.34-2.38-.1-3.3.75-1.36 1.28-1.43 3.42-.15 4.8.9.96 2.26 1.26 3.45.9-.55-.16-1.07-.46-1.5-.9zm-51.76-3.25c-1.76-.66-2.64-2.6-2-4.36.4-1.02 1.23-1.74 2.2-2.04-1.7-.5-3.52.36-4.15 2.04-.65 1.75.24 3.7 2 4.36.7.27 1.47.27 2.15.06-.06-.03-.13-.04-.2-.06zm76.16-29.9c0-1.52 1.02-2.78 2.4-3.2-.3-.1-.62-.16-.95-.16-1.8 0-3.3 1.5-3.4 3.36 0 1.87 1.5 3.4 3.4 3.4.4 0 .7-.05 1-.15-1.4-.43-2.4-1.7-2.4-3.25zm-12.6 25.9c-1.6-.97-2.1-3.05-1.1-4.65.44-.73 1.13-1.22 1.9-1.46-1.44-.4-3.05.2-3.87 1.5-1 1.6-.5 3.7 1.1 4.7.8.5 1.8.6 2.7.4-.3-.1-.6-.2-.8-.3zm-53.76 7.04c.14-1.42 1.12-2.55 2.4-2.94-.2-.07-.44-.12-.68-.14-1.86-.16-3.5 1.22-3.67 3.08-.16 1.87 1.22 3.5 3.08 3.67.45.04.87 0 1.27-.14-1.5-.5-2.53-1.9-2.4-3.6zm28.4 4.06c-.87-1.66-.22-3.7 1.44-4.56.2-.1.38-.17.58-.23-.8-.25-1.72-.2-2.53.23-1.7.85-2.4 2.9-1.5 4.56.7 1.48 2.4 2.15 4 1.7-.9-.27-1.6-.85-2-1.7zm-14.65-.04c-.34-1.72.7-3.38 2.35-3.88-.52-.15-1.07-.2-1.63-.1-1.84.36-3.03 2.14-2.68 3.98.3 1.83 2.1 3.03 3.9 2.67.1-.02.2-.06.3-.1-1.2-.35-2.1-1.3-2.4-2.57zM266 234.4c-1.8.52-3.68-.52-4.2-2.3-.32-1.12-.05-2.25.63-3.08-1.8.52-2.83 2.4-2.3 4.2.5 1.78 2.4 2.82 4.2 2.3.68-.2 1.25-.6 1.67-1.12zm30.27 22.64c-1.66-.86-2.3-2.9-1.46-4.57.2-.2.3-.4.4-.56-.8.3-1.6.9-2 1.7-.8 1.7-.2 3.7 1.5 4.6 1.5.8 3.2.4 4.2-.9-.8.3-1.7.2-2.5-.2zm-13.8-5.14c-1.3-1.24-1.4-3.24-.3-4.6-.57.16-1.1.46-1.54.92-1.28 1.37-1.2 3.5.16 4.8 1.3 1.26 3.5 1.2 4.7-.17l.1-.2c-1.1.32-2.4.08-3.3-.76zm-11.67-8.53c-.78-1.25-.62-2.8.25-3.88-.28 0-.56.1-.82.3-1.6.9-2.1 3-1.12 4.6 1 1.6 3.1 2.1 4.7 1.1.4-.2.6-.5.9-.8-1.4.4-3-.2-3.8-1.5zm84.42-49.2c-1.27.37-2.26 1.48-2.42 2.88-.2 1.85 1.13 3.53 3 3.74 1.18.1 2.28-.4 3-1.3-.43.1-.87.1-1.33.1-1.86-.2-3.2-1.9-3-3.8.1-.7.36-1.3.75-1.8zm-6.55-9.5c.3 1.83 2.06 3.07 3.9 2.76.85-.14 1.57-.6 2.07-1.23-.13.04-.25.1-.38.1-1.85.32-3.6-.92-3.9-2.77-.17-1 .12-1.94.7-2.67-1.62.48-2.68 2.1-2.4 3.8zm-90.22 23.1c-.6.18-1.24.2-1.88.03-1.8-.5-2.85-2.38-2.34-4.18.13-.45.34-.85.6-1.2-1.06.32-1.96 1.16-2.28 2.32-.5 1.8.54 3.67 2.34 4.17 1.3.4 2.7-.1 3.5-1.1zm1.95 14.07c-.28.1-.58.15-.9.15-1.87 0-3.4-1.5-3.42-3.4 0-.8.3-1.6.77-2.2-1.42.4-2.46 1.7-2.45 3.2.02 1.8 1.55 3.4 3.42 3.3 1.05 0 1.98-.5 2.6-1.3zm65.72 33.36c-1.86.15-3.5-1.23-3.66-3.1-.08-.9.2-1.76.74-2.4-1.52.43-2.57 1.9-2.42 3.53.16 1.86 1.8 3.24 3.66 3.08.96 0 1.78-.5 2.33-1.2-.2.1-.42.1-.65.1zm26.3-28.35c-1.45-1.17-1.7-3.3-.52-4.76v-.1c-.64.2-1.23.5-1.68 1.1-1.17 1.4-.93 3.6.53 4.7s3.58.9 4.75-.5c-1.02.3-2.17.1-3.07-.6zm-7.57 11.05c-.92-1.27-.82-2.94.12-4.1-.37.1-.72.26-1.04.5-1.52 1.1-1.86 3.2-.77 4.72 1.1 1.52 3.2 1.86 4.73.76.2-.18.4-.4.6-.62-1.4.38-2.8-.07-3.7-1.26zm-33.35 20.3c-1.84-.35-3.04-2.12-2.68-3.96.1-.56.36-1.05.7-1.47-1.18.34-2.13 1.3-2.38 2.6-.36 1.82.84 3.6 2.67 3.96 1.3.25 2.6-.26 3.3-1.2-.5.14-1 .2-1.6.08zm45.33-44.36c-1.72-.7-2.53-2.7-1.8-4.42.1-.3.3-.57.5-.8-.96.27-1.8.94-2.2 1.92-.72 1.72.1 3.7 1.82 4.42 1.43.6 3 .14 3.93-1-.7.2-1.5.2-2.25-.12zm-10.85-38.14c.48-.22.87-.56 1.18-.94-1.57.46-3.28-.27-4-1.8-.57-1.22-.35-2.58.43-3.56-.2.05-.4.1-.5.17-1.7.8-2.5 2.82-1.7 4.5.8 1.7 2.8 2.43 4.5 1.63zm-11.32 70.8c-.43-1.16-.18-2.4.54-3.3l-.24.06c-1.75.65-2.64 2.6-1.98 4.35.66 1.8 2.6 2.7 4.36 2 .6-.2 1.07-.6 1.44-1-1.7.5-3.5-.4-4.12-2zm1.86-80.3c.16-.14.3-.3.43-.45-1.24.36-2.62 0-3.52-1.05-1.08-1.26-1.06-3.07-.06-4.32-.45.13-.87.35-1.25.67-1.42 1.22-1.58 3.36-.37 4.77 1.22 1.42 3.35 1.6 4.77.38zm-88.72-48.95c-.33-.1-.67-.17-1.02-.17-2.15 0-3.9 1.83-3.9 4.08s1.75 4.07 3.9 4.07c.18 0 .35-.03.52-.06-1.65-.47-2.87-2.03-2.87-3.9 0-2.07 1.47-3.75 3.36-4.02zm-1.02 61.4c.18 0 .35-.02.53-.05-1.6-.47-2.8-2.03-2.8-3.9 0-2.07 1.5-3.75 3.4-4.03-.3-.1-.6-.16-1-.16-2.1 0-3.9 1.9-3.9 4.1s1.8 4.1 3.9 4.1zm1.02-34.7c-.33-.1-.67-.15-1.02-.15-2.15 0-3.9 1.82-3.9 4.07s1.75 4.07 3.9 4.07c.18 0 .35-.03.52-.05-1.65-.5-2.87-2.1-2.87-4 0-2.1 1.47-3.8 3.36-4zm-1.02 21.35c.18 0 .35-.03.53-.06-1.6-.47-2.8-2.03-2.8-3.9 0-2.07 1.5-3.75 3.4-4.02-.3-.1-.6-.16-1-.16-2.1 0-3.9 1.82-3.9 4.07s1.8 4.07 3.9 4.07zm0-66.78c.18 0 .35-.04.53-.06-1.6-.47-2.8-2.03-2.8-3.9 0-2.07 1.5-3.76 3.4-4.03-.3-.1-.6-.16-1-.16-2.1 0-3.9 1.82-3.9 4.07s1.8 4.08 3.9 4.08zm-2.35 89.53c0-2.07 1.47-3.75 3.37-4.02-.33-.1-.67-.16-1.02-.16-2.15 0-3.9 1.82-3.9 4.07s1.75 4.07 3.9 4.07h.53c-1.6-.4-2.8-2-2.8-3.9zm2.35-49.45c.18 0 .35-.05.52-.07-1.65-.47-2.87-2.03-2.87-3.9 0-2.07 1.47-3.76 3.36-4.03-.4-.1-.7-.16-1.1-.16-2.2 0-3.9 1.83-3.9 4.07 0 2.3 1.7 4.1 3.9 4.1zm0-26.73c.18 0 .35-.03.53-.06-1.6-.4-2.8-2-2.8-3.9 0-2 1.5-3.7 3.4-4-.3-.1-.6-.1-1-.1-2.1 0-3.9 1.8-3.9 4.1s1.8 4.1 3.9 4.1z"/>
  <path fill="#231F20" stroke="#231F20" stroke-width="6.35" d="M106.68 238.08c-34.03-2.54 4.2 101.54 23.6 103.67 4.9.54-20-103.4-23.6-103.67zm277.1 0c34.02-2.54-4.2 101.54-23.6 103.67-4.9.54 20-103.4 23.6-103.67z"/>
  <path fill="#7A7A7A" d="M377.42 256.05c-8.3 29.78-20.88 86.1-17.26 85.7 1.7-.2 3.54-1.17 5.46-2.77 1.1-18.28 7.02-58.02 11.8-82.93zm-269.97-17.03c-.3-.6-.58-.93-.77-.94-29.92-2.23-3.98 77.92 15.9 98.78-16.56-21.4-34.15-89-15.13-97.84z"/>
  <path fill="#7A7A7A" d="M105.32 242.83c-.32-.1-.66-.16-1-.16-2.16 0-3.9 1.82-3.9 4.07s1.74 4.07 3.9 4.07h.5c-1.64-.4-2.86-2-2.86-3.9 0-2 1.47-3.7 3.36-4zm284.74 1.53c-.32-.1-.66-.17-1-.17-2.16 0-3.9 1.8-3.9 4s1.74 4 3.9 4c.17 0 .34-.1.5-.1-1.64-.5-2.86-2.1-2.86-3.9 0-2.1 1.47-3.8 3.36-4zM216.3 327.12c0 8.23-6.15 14.06-13.75 13.03-7.6-1.03-13.75-8.53-13.75-16.75s6.16-14.06 13.75-13.03c7.6 1.03 13.76 8.53 13.76 16.75z"/>
  <path fill="none" stroke="#231F20" stroke-width="1.59" d="M188.92 329.13l31.24 6.02m-31.24-9.2l31.24 6.03m-31.24-9.18l31.24 6m-31.24-9.2l31.24 6.03m-31.24-9.2l31.24 6m-31.24-9.17l31.24 6.02m-31.24-9.18l31.24 6"/>
  <path fill="#231F20" d="M205.08 337.42c-6.72-.9-12.16-7.54-12.16-14.8 0-4.87 2.45-8.77 6.07-10.56-5.4.66-9.4 5.3-9.4 11.52 0 7.27 5.4 13.9 12.1 14.8 2.2.3 4.3-.07 6.1-.95-.9.1-1.9.12-2.9 0z"/>
  <path fill="none" stroke="#7A7A7A" stroke-width="3.17" d="M216.3 327.12c0 8.23-6.15 14.06-13.75 13.03-7.6-1.03-13.75-8.53-13.75-16.75s6.16-14.06 13.75-13.03c7.6 1.03 13.76 8.53 13.76 16.75z"/>
  <path fill="#7A7A7A" d="M244.67 337.3c0 5.13-3.85 8.78-8.6 8.14-4.74-.64-8.6-5.33-8.6-10.47 0-5.14 3.86-8.78 8.6-8.14 4.75.64 8.6 5.33 8.6 10.46z"/>
  <path fill="#231F20" d="M237.6 342.15c-3.33-.45-6.03-3.73-6.03-7.33 0-2.4 1.2-4.34 3-5.22-2.63.33-4.6 2.63-4.6 5.7 0 3.6 2.7 6.88 6.02 7.33 1.1.15 2.1-.04 3-.48-.5.06-1 .07-1.4 0z"/>
  <circle cx="119.98" cy="164.34" r="6.73" fill="#FFF" fill-rule="evenodd" clip-rule="evenodd"/>
  <path fill="none" stroke="#231F20" stroke-width="6.35" d="M105.83 157.34c-5.4-15.18-7.06-41.2-7.06-41.2 24.95 63.92 146.68 29.4 147.87 119.48" stroke-linecap="round" stroke-linejoin="round"/>
  <path fill="none" stroke="#231F20" stroke-width="6.35" d="M246.5 235.62c1.2-90.08 122.92-55.56 147.86-119.47 0 0-1.65 26-7.05 41.2" stroke-linecap="round" stroke-linejoin="round"/>
  <path fill="#231F20" d="M258.74 244.06c0 7.54-6.1 37.54-13.65 37.54-7.6 0-13.7-30-13.7-37.54s6.1-13.65 13.6-13.65 13.6 6.2 13.6 13.7z"/>
  <path fill="#7A7A7A" d="M241.3 244.63c.98-6.23 6.02-10.8 12-11.45-2.3-1.73-5.13-2.77-8.2-2.77-7.55 0-13.66 6.2-13.66 13.7s6.1 37.6 13.65 37.6c.3 0 .6 0 .9-.1-4.9-7.5-5.7-30.5-4.7-36.8z"/>
  <circle cx="237.24" cy="241.16" r="3.02" fill="#FFF"/>
  <use width="88.94" height="68.89" x="-44.47" y="-34.44" xlink:href="#b" transform="matrix(.8288 0 0 -.8288 192.02 375.14)" overflow="visible"/>
  <use width="88.94" height="68.89" x="-44.47" y="-34.44" xlink:href="#b" transform="matrix(.8288 0 0 -.8288 302.912 375.14)" overflow="visible"/>
  <path d="M73.96 413.04H85.4l9.67 30.38h.23l-1.24-8.8v-21.58h9.73v50.25H92.3l-9.66-30.4h-.3l1.24 8.7v21.6h-9.65V413zm35.37-3.66v-9.66H119v9.66h-9.67zm0 3.66H119v50.25h-9.67V413zm42.84 12.7v3.5h-9.74v-3.5c0-2.34-1.8-4.13-4.13-4.13-2.25 0-4.12 1.8-4.12 4.2v25.1c0 2.3 1.87 4.2 4.13 4.2 2.4 0 4.2-1.8 4.2-4.1v-8H138v-9.5h14.27V451c0 7.64-6.23 13.8-13.87 13.8s-13.78-6.16-13.78-13.8v-25.1c0-7.64 6.14-13.8 13.77-13.8s13.8 6.16 13.8 13.8zm15.2 7.64h8.25v-20.34h9.74v50.25h-9.74V443h-8.26v20.26h-9.66V413h9.66v20.33zm21.96-20.34h27.65v9.66h-9.03v40.6h-9.66v-40.6h-9v-9.66zm31.63 0h9.66v40.6h18v9.65h-27.66V413zm41.36 34.76v15.5h-10.05v-15.5l-9.03-34.76h10.36l2.96 14.73.7 7.16h.15l.8-7.16 2.9-14.73h10.5l-9.1 34.75zm53.28.84v.86c0 7.63-6.23 13.8-13.86 13.8h-13.8v-50.26h13.8c7.63 0 13.86 6.16 13.86 13.8v.85c0 4.2-1.94 7.9-4.9 10.4 2.96 2.5 4.9 6.3 4.9 10.5zm-18-15.26h4.14c2.33 0 4.13-1.95 4.13-4.3v-2.25c0-2.26-1.8-4.13-4.13-4.13h-4.13v10.68zm8.27 16.12v-2.26c0-2.34-1.8-4.28-4.13-4.28h-4.13v10.67h4.2c2.4 0 4.2-1.87 4.2-4.13zm24.93-36.46v37.78c0 2.26 1.86 4.13 4.12 4.13 2.34 0 4.13-1.87 4.13-4.13v-37.78h9.74v37.78c0 7.64-6.3 13.8-13.9 13.8s-13.8-6.16-13.8-13.8v-37.78h9.7zm23.52-3.66v-9.66h9.66v9.66h-9.66zm0 3.66h9.66v50.25h-9.66V413zm15.18 0h9.67v40.6h18v9.65H369.5V413zm57.74 36.46c0 7.63-6.24 13.8-13.87 13.8h-13.8v-50.26h13.8c7.63 0 13.87 6.16 13.87 13.8v22.66zm-9.74 0v-22.66c0-2.27-1.8-4.14-4.13-4.14h-4.13v30.94h4.13c2.34 0 4.13-1.88 4.13-4.14z"/>
</svg>
