<?xml version="1.0" standalone="no"?>
<!DOCTYPE svg PUBLIC "-//W3C//DTD SVG 20010904//EN"
 "http://www.w3.org/TR/2001/REC-SVG-20010904/DTD/svg10.dtd">
<svg version="1.0" xmlns="http://www.w3.org/2000/svg"
 width="260.000000pt" height="260.000000pt" viewBox="0 0 260.000000 260.000000"
 preserveAspectRatio="xMidYMid meet">
<metadata>
Created by potrace 1.11, written by Peter Selinger 2001-2013
</metadata>
<g transform="translate(0.000000,260.000000) scale(0.100000,-0.100000)"
fill="#000000" stroke="none">
<path d="M1458 2575 c-2 -1 -30 -5 -63 -8 -233 -23 -540 -200 -786 -454 -253
-260 -439 -588 -523 -918 -38 -151 -48 -227 -51 -380 -4 -203 24 -338 96 -473
74 -138 165 -225 294 -278 65 -27 79 -29 200 -29 108 0 141 4 193 22 230 80
474 318 616 600 23 47 52 83 41 51 -9 -26 -15 -75 -21 -169 -17 -291 157 -507
411 -511 88 -1 133 6 204 35 156 63 304 210 330 329 19 84 17 119 -7 139 -24
19 -25 19 -117 -17 -73 -28 -103 -34 -176 -35 -117 -2 -173 69 -171 217 1 162
43 320 162 618 93 233 129 317 234 539 37 76 66 140 66 142 0 1 36 79 81 171
45 93 85 180 90 193 19 49 -26 118 -115 177 -57 37 -200 47 -260 19 -46 -22
-127 -104 -179 -180 -22 -33 -42 -62 -44 -65 -3 -3 -14 9 -26 25 -70 99 -193
187 -307 219 -47 13 -164 27 -172 21z m172 -337 c82 -42 151 -151 151 -238 0
-87 -157 -503 -298 -785 -232 -466 -540 -815 -721 -815 -129 0 -194 115 -186
326 3 94 11 196 18 229 2 11 7 40 11 65 49 315 236 725 425 934 133 148 233
224 362 275 59 24 82 28 142 25 38 -1 82 -9 96 -16z"/>
</g>
</svg>
