<?xml version="1.0" encoding="UTF-8"?>
<svg viewBox="0 0 3671 510" version="1.1" xmlns="http://www.w3.org/2000/svg" xmlns:xlink="http://www.w3.org/1999/xlink">
    <g id="Page-1" stroke="none" stroke-width="1" fill="none" fill-rule="evenodd">
        <g id="rabbit-cells">
            <polygon id="Shape" points="0.5 0.5 359.5 0.5 359.5 509.5 0.5 509.5"></polygon>
            <polygon id="Shape" points="359.5 0.5 718.5 0.5 718.5 509.5 359.5 509.5"></polygon>
            <polygon id="Shape" points="718.5 0.5 1077.5 0.5 1077.5 509.5 718.5 509.5"></polygon>
            <polygon id="Shape" points="1077.5 0.5 1447.5 0.5 1447.5 509.5 1077.5 509.5"></polygon>
            <polygon id="Shape" points="1448.5 0.5 1818.5 0.5 1818.5 509.5 1448.5 509.5"></polygon>
            <polygon id="Shape" points="1818.5 0.5 2188.5 0.5 2188.5 509.5 1818.5 509.5"></polygon>
            <polygon id="Shape" points="2189.5 0.5 2461 0.5 2559.5 0.5 2559.5 509.5 2189.5 509.5"></polygon>
            <polygon id="Shape" points="2559.5 0.5 2929.5 0.5 2929.5 509.5 2559.5 509.5"></polygon>
            <polygon id="Shape" points="2930.5 0.5 3300.5 0.5 3300.5 509.5 2930.5 509.5"></polygon>
            <polygon id="Shape" points="3300.5 0.5 3670.5 0.5 3670.5 509.5 3300.5 509.5"></polygon>
            <path d="M3424.15708,379.544772 C3424.12056,386.842835 3424.34246,388.708464 3427.91034,401.554519 C3429.62583,407.731106 3433.06649,413.40119 3434.30886,419.69004 C3437.32558,434.960482 3422.91421,452.404339 3412.46793,433.050541 C3407.2496,423.382557 3393.01851,380.971197 3396.47235,363.189335 C3394.13183,360.394031 3391.64651,357.174564 3389.00582,353.477776 C3383.11306,345.228328 3339.22152,325.35901 3357.3672,302.802927 C3361.11725,298.1414 3368.29947,308.008448 3373.76561,310.611208 L3382.55097,318.501898 C3415.12457,289.165092 3444.61574,283.539497 3490.01635,284.995652 C3497.02126,285.220324 3517.40663,291.742691 3520.3979,293.07863 C3527.51197,296.255871 3533.43707,308.052723 3540.5322,304.83569 C3547.63748,301.614058 3546.06075,289.677071 3544.2681,282.255543 C3541.38099,270.302965 3532.24669,260.631506 3527.14229,249.401704 C3525.71878,246.269957 3524.05273,242.738452 3524.78352,239.388975 C3525.32507,236.906812 3528.0863,235.191314 3530.46858,234.155985 C3555.56578,223.248836 3574.97388,293.051048 3577.12848,295.660788 C3583.05507,302.839285 3628.68231,296.252543 3617.1358,334.784601 C3611.95119,352.08624 3596.45763,356.308218 3580.38445,358.276954 C3586.9079,372.750784 3600.45387,386.113662 3608.84534,398.779501 C3608.92433,398.898722 3614.33187,411.043968 3611.2997,412.69868 C3590.04548,424.297499 3576.5418,393.685358 3569.09331,382.339112 C3564.56001,375.433557 3557.7032,370.187734 3553.50765,363.071913 C3553.27954,362.685023 3553.09445,362.21895 3552.96378,361.71723 C3551.96191,361.955315 3550.98994,362.217507 3550.05204,362.508461 C3549.1761,362.780194 3544.26768,364.688835 3538.04363,366.687996 C3538.21211,384.963723 3539.97412,362.10859 3556.51114,402.919442 C3557.58367,405.566279 3559.30017,417.724746 3555.24098,422.721444 C3554.48731,423.649187 3553.86944,425.067503 3552.68635,425.237878 C3528.69674,428.692593 3512.77968,389.362724 3505.57808,369.543701 C3495.44778,367.581331 3483.99899,374.004795 3473.27189,374.238051 C3471.89857,374.267913 3470.51326,374.212072 3469.11987,374.094715 C3468.71001,384.18275 3467.68565,394.310275 3469.03757,404.285097 C3472.26938,428.130051 3491.87891,410.936152 3496.1931,422.683243 C3496.74411,424.183575 3497.23956,426.046619 3496.50826,427.467812 C3492.7146,434.840241 3477.39898,434.382987 3471.07651,433.33631 C3452.88666,430.325005 3436.846,387.409296 3445.17723,370.570058 C3441.60997,370.488811 3438.14051,370.935998 3434.83944,372.349504 C3432.54578,373.331642 3429.4433,378.032789 3424.15708,379.544772 Z" id="rabbit-10" fill="#000000"></path>
            <path d="M3033.67551,332.936321 C3029.40467,328.891319 3024.54736,323.235557 3019.00582,315.477776 C3013.11306,307.228328 2969.22152,287.35901 2987.3672,264.802927 C2991.11725,260.1414 2998.29947,270.008448 3003.76561,272.611208 L3012.55097,280.501898 C3045.12457,251.165092 3074.61574,245.539497 3120.01635,246.995652 C3127.02126,247.220324 3147.40663,253.742691 3150.3979,255.07863 C3157.51197,258.255871 3163.43707,270.052723 3170.5322,266.83569 C3177.63748,263.614058 3176.06075,251.677071 3174.2681,244.255543 C3171.38099,232.302965 3162.24669,222.631506 3157.14229,211.401704 C3155.71878,208.269957 3154.05273,204.738452 3154.78352,201.388975 C3155.32507,198.906812 3158.0863,197.191314 3160.46858,196.155985 C3185.56578,185.248836 3204.97388,255.051048 3207.12848,257.660788 C3213.05507,264.839285 3258.68231,258.252543 3247.1358,296.784601 C3241.70869,314.895503 3224.98569,318.674558 3208.12623,320.539529 C3217.48557,334.633869 3228.42098,347.294738 3226.28516,365.207031 C3224.70942,378.422111 3192.66373,382.101951 3190.62891,368.449219 C3185.38516,333.26605 3213.3101,374.578153 3207.18359,347.21875 C3204.91499,337.087772 3190.63224,328.92189 3185.52004,323.171142 C3183.60026,323.539556 3181.76905,323.975812 3180.05204,324.508461 C3179.0579,324.816863 3172.8695,327.233768 3165.45872,329.498475 C3169.38867,343.03556 3179.9484,359.193894 3174.42188,373.042969 C3167.67954,389.938779 3151.17748,387.750409 3141.33984,374.257812 C3134.16649,364.419348 3148.71419,358.476912 3155.30078,359.449219 C3156.83455,359.675632 3159.73273,363.379572 3159.25,361.90625 C3157.50206,356.571416 3153.37197,352.283339 3151.25,347.085938 C3148.52886,340.420963 3147.62274,336.561235 3147.09108,333.505714 C3143.95794,333.747367 3141.25444,333.563004 3139.37381,332.728788 C3128.37061,327.847929 3115.36282,335.975139 3103.27189,336.238051 C3100.30015,336.30267 3097.2723,335.965985 3094.22782,335.473072 C3094.98262,347.946641 3097.90918,357.546414 3106.85547,369.066406 C3111.08969,374.518745 3124.19508,382.010083 3120.41797,392.070312 C3113.83947,409.591938 3093.1409,388.031687 3088.84766,381.929688 C3087.70943,380.31192 3067.83117,351.948242 3065.94099,333.915309 C3065.57181,334.048612 3065.2046,334.193146 3064.83944,334.349504 C3062.86134,335.19652 3060.28166,338.809623 3056.21848,340.757616 C3056.86508,344.359607 3057.70974,350.520559 3058.8125,360.414062 C3059.56421,367.158072 3059.90181,381.02367 3055.625,388.664062 C3051.93068,395.263868 3039.82916,403.864313 3037.03516,390.6875 C3034.28239,377.705172 3044.08898,372.091595 3041.35938,360.027344 C3039.89355,353.548698 3035.62333,347.883956 3034.39844,341.355469 C3034.17096,340.143064 3033.79005,336.889568 3033.67551,332.936321 Z M3054.06588,341.570478 C3054.10769,341.558866 3054.14936,341.547054 3054.1909,341.535046 C3054.03777,345.972146 3054.22216,350.402192 3054.06588,341.570478 Z" id="rabbit-9" fill="#000000"></path>
            <path d="M2773.96039,294.602575 C2771.73383,294.624974 2769.8129,294.367144 2768.37381,293.728788 C2757.37061,288.847929 2744.36282,296.975139 2732.27189,297.238051 C2726.89972,297.354866 2721.34415,296.160231 2715.83856,295.101972 C2716.0123,301.585961 2716.45369,308.083968 2715.77734,314.523438 C2714.91007,322.780672 2713.07502,330.948643 2710.74609,338.917969 C2708.83418,345.460313 2688.99667,365.476179 2687.67969,350.660156 C2686.57246,338.203894 2697.78965,331.337717 2699.67578,319.160156 C2700.50293,313.819811 2697.20204,302.977932 2696.76425,294.349703 C2695.7762,294.608242 2694.80068,294.937905 2693.83944,295.349504 C2691.94009,296.162798 2689.48612,299.526314 2685.69677,301.517315 C2685.05772,315.105065 2681.67387,329.326177 2668.13672,336.644531 C2659.42831,341.352407 2644.19075,345.730274 2638.04297,334.59375 C2631.55315,322.837639 2658.46898,325.570493 2658.54688,325.542969 C2661.74591,324.412575 2668.10139,310.555316 2668.63672,308.996094 C2669.63095,306.100251 2669.63086,302.930056 2670.36442,299.964181 C2664.49413,296.417902 2657.18961,289.33446 2648.00582,276.477776 C2642.11306,268.228328 2598.22152,248.35901 2616.3672,225.802927 C2620.11725,221.1414 2627.29947,231.008448 2632.76561,233.611208 L2641.55097,241.501898 C2674.12457,212.165092 2703.61574,206.539497 2749.01635,207.995652 C2756.02126,208.220324 2776.40663,214.742691 2779.3979,216.07863 C2786.51197,219.255871 2792.43707,231.052723 2799.5322,227.83569 C2806.63748,224.614058 2805.06075,212.677071 2803.2681,205.255543 C2800.38099,193.302965 2791.24669,183.631506 2786.14229,172.401704 C2784.71878,169.269957 2783.05273,165.738452 2783.78352,162.388975 C2784.32507,159.906812 2787.0863,158.191314 2789.46858,157.155985 C2814.56578,146.248836 2833.97388,216.051048 2836.12848,218.660788 C2842.05507,225.839285 2887.68231,219.252543 2876.1358,257.784601 C2868.84296,282.12166 2841.15264,280.579082 2820.14343,283.288827 C2819.30078,294.310572 2819.35173,299.646358 2812.42969,311.386719 C2804.20197,325.34162 2794.16385,338.925175 2777.80859,342.371094 C2771.40519,343.720239 2763.59421,342.421046 2765.59375,333.898438 C2767.8532,324.26799 2779.34169,333.286021 2789.67969,315.449219 C2794.75877,306.685949 2798.88261,297.356959 2802.44892,287.87403 C2800.13649,288.681002 2797.38208,289.605548 2794.43518,290.505666 C2791.9663,306.85198 2776.70788,318.977914 2762.25781,325.929688 C2752.88008,330.441215 2739.9206,332.78667 2745.23047,316.46875 C2745.73063,314.931681 2748.07172,314.730553 2749.67578,314.53125 C2753.36357,314.073048 2757.83629,316.740777 2760.82422,314.53125 C2766.24341,310.523843 2768.85806,303.672528 2772.24219,297.84375 C2772.87684,296.750627 2773.4421,295.664919 2773.96039,294.602575 Z" id="rabbit-8" fill="#000000"></path>
            <path d="M2440.33268,205.801433 C2434.97359,198.881739 2429.71489,189.618044 2422.83984,182.779948 C2416.59808,176.571726 2391.80954,175.47921 2390.22266,167.850261 C2386.04112,147.74752 2419.70687,158.070039 2427.23047,163.776042 C2438.48994,172.315383 2448.92382,181.941965 2458.97266,191.877605 C2462.70432,195.567234 2464.57897,197.935717 2465.85597,200.366003 C2465.97023,200.426025 2466.06152,200.496344 2466.12848,200.577456 C2472.05507,207.755953 2517.68231,201.169211 2506.1358,239.701268 C2498.82568,264.095983 2471.02133,262.488295 2449.99422,265.224824 C2449.3827,272.16266 2448.93768,276.187439 2443.27432,284.220582 C2435.91485,294.65956 2426.93603,304.820753 2412.30671,307.398476 C2406.57903,308.407705 2399.59234,307.435842 2401.38086,301.060496 C2403.40188,293.85643 2413.67802,300.602377 2422.92507,287.259539 C2426.83156,281.622753 2430.10629,275.67307 2432.97544,269.606329 C2430.43664,270.498322 2427.30691,271.554983 2423.94808,272.570353 C2419.82378,285.864606 2401.07954,295.758856 2383.2952,301.517569 C2371.33321,305.390959 2354.80243,307.404659 2361.57557,293.394843 C2362.21356,292.075186 2365.19979,291.902506 2367.24589,291.731394 C2371.94994,291.338003 2377.65522,293.628393 2381.46655,291.731394 C2388.37913,288.290819 2391.71431,282.408595 2396.03101,277.404274 C2396.62452,276.716227 2397.17045,276.031601 2397.68007,275.355793 C2386.82631,271.101476 2374.10966,278.897311 2362.27189,279.154718 C2356.66748,279.276583 2350.86345,277.971156 2345.12482,276.882271 C2345.439,281.25318 2345.80795,285.625467 2344.85885,289.964608 C2343.41061,296.585836 2340.34626,303.135488 2336.45719,309.525852 C2333.2645,314.771962 2300.13793,330.822085 2297.93871,318.94156 C2296.08976,308.953257 2314.82128,303.447475 2317.97093,293.682654 C2318.74842,291.272219 2317.34179,287.464028 2315.83314,283.361437 C2315.7067,283.429531 2315.57876,283.496123 2315.44929,283.561066 C2313.01878,293.652624 2307.18926,303.043239 2293.83925,308.539889 C2282.40498,313.247764 2262.39784,317.625632 2254.32572,306.489107 C2245.80449,294.732996 2281.14537,297.46585 2281.24765,297.438326 C2285.44802,296.307932 2293.79287,282.450673 2294.49576,280.891451 C2294.88208,280.034478 2295.15406,279.153477 2295.37051,278.260856 C2290.47781,274.160619 2284.74829,267.833436 2278.00582,258.394443 C2272.11306,250.144995 2228.22152,230.275677 2246.3672,207.719594 C2250.11725,203.058067 2257.29947,212.925115 2262.76561,215.527875 L2271.55097,223.418565 C2304.12457,194.081759 2333.61574,188.456164 2379.01635,189.912319 C2386.02126,190.136991 2406.40663,196.659358 2409.3979,197.995298 C2416.51197,201.172538 2422.43707,212.969391 2429.5322,209.752357 C2431.69023,208.773879 2435.7145,207.302678 2440.33268,205.801433 Z" id="rabbit-7" fill="#000000"></path>
            <path d="M2032.96039,294.602575 C2030.73383,294.624974 2028.8129,294.367144 2027.37381,293.728788 C2016.37061,288.847929 2003.36282,296.975139 1991.27189,297.238051 C1985.89972,297.354866 1980.34415,296.160231 1974.83856,295.101972 C1975.0123,301.585961 1975.45369,308.083968 1974.77734,314.523438 C1973.91007,322.780672 1972.07502,330.948643 1969.74609,338.917969 C1967.83418,345.460313 1947.99667,365.476179 1946.67969,350.660156 C1945.57246,338.203894 1956.78965,331.337717 1958.67578,319.160156 C1959.50293,313.819811 1956.20204,302.977932 1955.76425,294.349703 C1954.7762,294.608242 1953.80068,294.937905 1952.83944,295.349504 C1950.94009,296.162798 1948.48612,299.526314 1944.69677,301.517315 C1944.05772,315.105065 1940.67387,329.326177 1927.13672,336.644531 C1918.42831,341.352407 1903.19075,345.730274 1897.04297,334.59375 C1890.55315,322.837639 1917.46898,325.570493 1917.54687,325.542969 C1920.74591,324.412575 1927.10139,310.555316 1927.63672,308.996094 C1928.63095,306.100251 1928.63086,302.930056 1929.36442,299.964181 C1923.49413,296.417902 1916.18961,289.33446 1907.00582,276.477776 C1901.11306,268.228328 1857.22152,248.35901 1875.3672,225.802927 C1879.11725,221.1414 1886.29947,231.008448 1891.76561,233.611208 L1900.55097,241.501898 C1933.12457,212.165092 1962.61574,206.539497 2008.01635,207.995652 C2015.02126,208.220324 2035.40663,214.742691 2038.3979,216.07863 C2045.51197,219.255871 2051.43707,231.052723 2058.5322,227.83569 C2065.63748,224.614058 2064.06075,212.677071 2062.2681,205.255543 C2059.38099,193.302965 2050.24669,183.631506 2045.14229,172.401704 C2043.71878,169.269957 2042.05273,165.738452 2042.78352,162.388975 C2043.32507,159.906812 2046.0863,158.191314 2048.46858,157.155985 C2073.56578,146.248836 2092.97388,216.051048 2095.12848,218.660788 C2101.05507,225.839285 2146.68231,219.252543 2135.1358,257.784601 C2127.84296,282.12166 2100.15264,280.579082 2079.14343,283.288827 C2078.30078,294.310572 2078.35173,299.646358 2071.42969,311.386719 C2063.20197,325.34162 2053.16385,338.925175 2036.80859,342.371094 C2030.40519,343.720239 2022.59421,342.421046 2024.59375,333.898438 C2026.8532,324.26799 2038.34169,333.286021 2048.67969,315.449219 C2053.75877,306.685949 2057.88261,297.356959 2061.44892,287.87403 C2059.13649,288.681002 2056.38208,289.605548 2053.43518,290.505666 C2050.9663,306.85198 2035.70788,318.977914 2021.25781,325.929688 C2011.88008,330.441215 1998.9206,332.78667 2004.23047,316.46875 C2004.73063,314.931681 2007.07172,314.730553 2008.67578,314.53125 C2012.36357,314.073048 2016.83629,316.740777 2019.82422,314.53125 C2025.24341,310.523843 2027.85806,303.672528 2031.24219,297.84375 C2031.87684,296.750627 2032.4421,295.664919 2032.96039,294.602575 Z" id="rabbit-6" fill="#000000"></path>
            <path d="M1551.67551,332.936321 C1547.40467,328.891319 1542.54736,323.235557 1537.00582,315.477776 C1531.11306,307.228328 1487.22152,287.35901 1505.3672,264.802927 C1509.11725,260.1414 1516.29947,270.008448 1521.76561,272.611208 L1530.55097,280.501898 C1563.12457,251.165092 1592.61574,245.539497 1638.01635,246.995652 C1645.02126,247.220324 1665.40663,253.742691 1668.3979,255.07863 C1675.51197,258.255871 1681.43707,270.052723 1688.5322,266.83569 C1695.63748,263.614058 1694.06075,251.677071 1692.2681,244.255543 C1689.38099,232.302965 1680.24669,222.631506 1675.14229,211.401704 C1673.71878,208.269957 1672.05273,204.738452 1672.78352,201.388975 C1673.32507,198.906812 1676.0863,197.191314 1678.46858,196.155985 C1703.56578,185.248836 1722.97388,255.051048 1725.12848,257.660788 C1731.05507,264.839285 1776.68231,258.252543 1765.1358,296.784601 C1759.70869,314.895503 1742.98569,318.674558 1726.12623,320.539529 C1735.48557,334.633869 1746.42098,347.294738 1744.28516,365.207031 C1742.70942,378.422111 1710.66373,382.101951 1708.62891,368.449219 C1703.38516,333.26605 1731.3101,374.578153 1725.18359,347.21875 C1722.91499,337.087772 1708.63224,328.92189 1703.52004,323.171142 C1701.60026,323.539556 1699.76905,323.975812 1698.05204,324.508461 C1697.0579,324.816863 1690.8695,327.233768 1683.45872,329.498475 C1687.38867,343.03556 1697.9484,359.193894 1692.42188,373.042969 C1685.67954,389.938779 1669.17748,387.750409 1659.33984,374.257812 C1652.16649,364.419348 1666.71419,358.476912 1673.30078,359.449219 C1674.83455,359.675632 1677.73273,363.379572 1677.25,361.90625 C1675.50206,356.571416 1671.37197,352.283339 1669.25,347.085938 C1666.52886,340.420963 1665.62274,336.561235 1665.09108,333.505714 C1661.95794,333.747367 1659.25444,333.563004 1657.37381,332.728788 C1646.37061,327.847929 1633.36282,335.975139 1621.27189,336.238051 C1618.30015,336.30267 1615.2723,335.965985 1612.22782,335.473072 C1612.98262,347.946641 1615.90918,357.546414 1624.85547,369.066406 C1629.08969,374.518745 1642.19508,382.010083 1638.41797,392.070313 C1631.83947,409.591938 1611.1409,388.031687 1606.84766,381.929688 C1605.70943,380.31192 1585.83117,351.948242 1583.94099,333.915309 C1583.57181,334.048612 1583.2046,334.193146 1582.83944,334.349504 C1580.86134,335.19652 1578.28166,338.809623 1574.21848,340.757616 C1574.86508,344.359607 1575.70974,350.520559 1576.8125,360.414062 C1577.56421,367.158072 1577.90181,381.02367 1573.625,388.664062 C1569.93068,395.263868 1557.82916,403.864313 1555.03516,390.6875 C1552.28239,377.705172 1562.08898,372.091595 1559.35938,360.027344 C1557.89355,353.548698 1553.62333,347.883956 1552.39844,341.355469 C1552.17096,340.143064 1551.79005,336.889568 1551.67551,332.936321 Z M1572.06588,341.570478 C1572.10769,341.558866 1572.14936,341.547054 1572.1909,341.535046 C1572.03777,345.972146 1572.22216,350.402192 1572.06588,341.570478 Z" id="rabbit-5" fill="#000000"></path>
            <path d="M1201.15708,365.544772 C1201.12056,372.842835 1201.34246,374.708464 1204.91034,387.554519 C1206.62583,393.731106 1210.06649,399.40119 1211.30886,405.69004 C1214.32558,420.960482 1199.91421,438.404339 1189.46793,419.050541 C1184.2496,409.382557 1170.01851,366.971197 1173.47235,349.189335 C1171.13183,346.394031 1168.64651,343.174564 1166.00582,339.477776 C1160.11306,331.228328 1116.22152,311.35901 1134.3672,288.802927 C1138.11725,284.1414 1145.29947,294.008448 1150.76561,296.611208 L1159.55097,304.501898 C1192.12457,275.165092 1221.61574,269.539497 1267.01635,270.995652 C1274.02126,271.220324 1294.40663,277.742691 1297.3979,279.07863 C1304.51197,282.255871 1310.43707,294.052723 1317.5322,290.83569 C1324.63748,287.614058 1323.06075,275.677071 1321.2681,268.255543 C1318.38099,256.302965 1309.24669,246.631506 1304.14229,235.401704 C1302.71878,232.269957 1301.05273,228.738452 1301.78352,225.388975 C1302.32507,222.906812 1305.0863,221.191314 1307.46858,220.155985 C1332.56578,209.248836 1351.97388,279.051048 1354.12848,281.660788 C1360.05507,288.839285 1405.68231,282.252543 1394.1358,320.784601 C1388.95119,338.08624 1373.45763,342.308218 1357.38445,344.276954 C1363.9079,358.750784 1377.45387,372.113662 1385.84534,384.779501 C1385.92433,384.898722 1391.33187,397.043968 1388.2997,398.69868 C1367.04548,410.297499 1353.5418,379.685358 1346.09331,368.339112 C1341.56001,361.433557 1334.7032,356.187734 1330.50765,349.071913 C1330.27954,348.685023 1330.09445,348.21895 1329.96378,347.71723 C1328.96191,347.955315 1327.98994,348.217507 1327.05204,348.508461 C1326.1761,348.780194 1321.26768,350.688835 1315.04363,352.687996 C1315.21211,370.963723 1316.97412,348.10859 1333.51114,388.919442 C1334.58367,391.566279 1336.30017,403.724746 1332.24098,408.721444 C1331.48731,409.649187 1330.86944,411.067503 1329.68635,411.237878 C1305.69674,414.692593 1289.77968,375.362724 1282.57808,355.543701 C1272.44778,353.581331 1260.99899,360.004795 1250.27189,360.238051 C1248.89857,360.267913 1247.51326,360.212072 1246.11987,360.094715 C1245.71001,370.18275 1244.68565,380.310275 1246.03757,390.285097 C1249.26938,414.130051 1268.87891,396.936152 1273.1931,408.683243 C1273.74411,410.183575 1274.23956,412.046619 1273.50826,413.467812 C1269.7146,420.840241 1254.39898,420.382987 1248.07651,419.33631 C1229.88666,416.325005 1213.846,373.409296 1222.17723,356.570058 C1218.60997,356.488811 1215.14051,356.935998 1211.83944,358.349504 C1209.54578,359.331642 1206.4433,364.032789 1201.15708,365.544772 Z" id="rabbit-4" fill="#000000"></path>
            <path d="M1006.98121,373.79825 C1016.59448,374.930428 1022.89742,378.725042 1028.58525,392.137652 C1030.36561,396.335958 1038.51865,419.987166 1029.58323,422.134318 C1006.38201,427.709498 1016.89658,418.081738 1008.03357,395.738016 C1003.35815,383.951238 979.303604,381.605728 967.866119,380.949783 C965.192475,380.796449 962.207625,381.568301 959.318111,382.137115 C958.793211,383.514736 961.047395,386.492556 961.958831,388.183614 C979.622987,420.957303 989.606131,409.873485 997.990134,420.391913 C1000.32353,423.319347 998.874839,427.900892 997.990134,431.503433 C997.309072,434.276735 988.956863,435.729898 983.5762,436.193895 C962.838111,437.982229 947.261244,432.63464 934.0208,415.749523 C927.855165,407.886685 928.625093,393.83252 919.373814,389.728788 C908.491981,384.901767 895.649534,392.797428 883.672324,393.226508 C886.588815,397.209082 889.395265,401.292042 892.946079,404.69595 C905.603943,416.830129 910.570673,412.052289 921.949541,425.758557 C922.959332,426.974888 927.299495,439.985918 924.499401,441.377642 C905.40879,450.866206 874.530111,416.660336 866.129575,405.211652 C864.786638,403.381429 861.235064,395.795816 860.213485,389.982634 C854.875297,389.281871 849.676585,389.278256 844.839441,391.349504 C839.538631,393.619293 847.800391,402.274427 850.008966,407.481124 C854.739222,418.632664 906.85978,438.359223 868.441286,441.406283 C801.426846,446.721355 829.91785,415.752495 799.005816,372.477776 C793.113063,364.228328 749.221522,344.35901 767.367196,321.802927 C771.117252,317.1414 778.299469,327.008448 783.765606,329.611208 L792.550972,337.501898 C825.124571,308.165092 854.615737,302.539497 900.016346,303.995652 C907.021264,304.220324 927.406631,310.742691 930.397896,312.07863 C937.511968,315.255871 943.43707,327.052723 950.532205,323.83569 C957.637482,320.614058 956.060752,308.677071 954.268104,301.255543 C951.380994,289.302965 942.246688,279.631506 937.142289,268.401704 C935.718783,265.269957 934.052732,261.738452 934.783517,258.388975 C935.325072,255.906812 938.086303,254.191314 940.468581,253.155985 C965.565779,242.248836 984.973875,312.051048 987.128483,314.660788 C993.055067,321.839285 1038.68231,315.252543 1027.1358,353.784601 C1023.80769,364.89088 1016.23166,370.607527 1006.98121,373.79825 Z" id="rabbit-3" fill="#000000"></path>
            <path d="M491.7685,410.10025 C492.265691,410.944066 492.697516,411.746883 493.008966,412.481124 C497.739222,423.632664 549.85978,443.359223 511.441286,446.406283 C444.426846,451.721355 472.91785,420.752495 442.005816,377.477776 C436.113063,369.228328 392.221522,349.35901 410.367196,326.802927 C414.117252,322.1414 421.299469,332.008448 426.765606,334.611208 L435.550972,342.501898 C468.124571,313.165092 497.615737,307.539497 543.016346,308.995652 C550.021264,309.220324 570.406631,315.742691 573.397896,317.07863 C580.511968,320.255871 586.43707,332.052723 593.532205,328.83569 C600.637482,325.614058 599.060752,313.677071 597.268104,306.255543 C594.380994,294.302965 585.246688,284.631506 580.142289,273.401704 C578.718783,270.269957 577.052732,266.738452 577.783517,263.388975 C578.325072,260.906812 581.086303,259.191314 583.468581,258.155985 C608.565779,247.248836 627.973875,317.051048 630.128483,319.660788 C636.055067,326.839285 681.682313,320.252543 670.1358,358.784601 C663.185195,381.979577 637.706612,381.666869 617.142512,383.93232 C626.720952,385.416606 637.500035,387.567117 643.098337,390.590062 C676.403964,408.574282 615.341157,404.179454 611.361294,403.519543 C611.306085,403.510389 611.251226,403.500853 611.196714,403.49094 C625.07814,423.537304 633.647428,416.179878 640.990134,425.391913 C643.323526,428.319347 641.874839,432.900892 640.990134,436.503433 C640.309072,439.276735 631.956863,440.729898 626.5762,441.193895 C605.838111,442.982229 590.261244,437.63464 577.0208,420.749523 C570.855165,412.886685 571.625093,398.83252 562.373814,394.728788 C551.370611,389.847929 538.362815,397.975139 526.271889,398.238051 C525.65691,398.251423 525.039527,398.24761 524.420091,398.228782 C536.484598,403.503923 551.251482,406.336411 558.482016,416.313478 C563.034362,422.595041 556.534956,425.414983 549.722773,426.345522 C530.658163,428.949732 518.077849,423.499022 502.632228,415.016945 C499.40521,413.244803 495.457668,411.750477 491.7685,410.10025 Z M602.397442,386.97517 C602.435098,387.593105 602.477609,388.218347 602.52863,388.84583 C602.231455,388.089516 602.12389,387.421252 602.397442,386.97517 Z" id="rabbit-2" fill="#010101"></path>
            <path d="M76.5509725,341.501898 C109.124571,312.165092 138.615737,306.539497 184.016346,307.995652 C191.021264,308.220324 211.406631,314.742691 214.397896,316.07863 C221.511968,319.255871 227.43707,331.052723 234.532205,327.83569 C241.637482,324.614058 240.060752,312.677071 238.268104,305.255543 C235.380994,293.302965 226.246688,283.631506 221.142289,272.401704 C219.718783,269.269957 218.052732,265.738452 218.783517,262.388975 C219.325072,259.906812 222.086303,258.191314 224.468581,257.155985 C249.565779,246.248836 268.973875,316.051048 271.128483,318.660788 C277.055067,325.839285 322.682313,319.252543 311.1358,357.784601 C302.453784,386.757497 264.863373,379.05238 244.052039,385.508461 C241.78959,386.210317 244.856416,390.138217 245.958831,392.183614 C263.622987,424.957303 273.606131,413.873485 281.990134,424.391913 C284.323526,427.319347 282.874839,431.900892 281.990134,435.503433 C281.309072,438.276735 272.956863,439.729898 267.5762,440.193895 C246.838111,441.982229 231.261244,436.63464 218.0208,419.749523 C211.855165,411.886685 212.625093,397.83252 203.373814,393.728788 C192.370611,388.847929 179.362815,396.975139 167.271889,397.238051 C154.447933,397.516902 140.578865,390.322722 128.839441,395.349504 C123.538631,397.619293 131.800391,406.274427 134.008966,411.481124 C138.739222,422.632664 190.85978,442.359223 152.441286,445.406283 C85.4268456,450.721355 113.91785,419.752495 83.0058159,376.477776 C77.1130633,368.228328 33.221522,348.35901 51.3671963,325.802927 C55.1172515,321.1414 62.2994693,331.008448 67.7656058,333.611208 L76.5509725,341.501898 Z" id="rabbit-1" fill="#010101"></path>
        </g>
    </g>
</svg>